<?xml version="1.0" encoding="UTF-8" standalone="no"?><!DOCTYPE svg PUBLIC "-//W3C//DTD SVG 1.1//EN" "http://www.w3.org/Graphics/SVG/1.1/DTD/svg11.dtd"><svg width="100%" height="100%" viewBox="0 0 154 148" version="1.1" xmlns="http://www.w3.org/2000/svg" xmlns:xlink="http://www.w3.org/1999/xlink" xml:space="preserve" xmlns:serif="http://www.serif.com/" style="fill-rule:evenodd;clip-rule:evenodd;stroke-linejoin:round;stroke-miterlimit:1.41421;"><path d="M76.907,63.081c-12.702,-6.909 -21.627,-9.826 -32.457,-9.826c-4.062,0.003 -8.401,0.405 -13.315,1.15l0,76.388c4.919,-0.746 9.253,-1.149 13.318,-1.149c7.457,0 14.011,1.396 21.503,4.499c-7.359,-2.003 -13.719,-2.893 -20.184,-2.893c-5.778,0 -11.881,0.695 -19.342,2.227l0,-68.593c0.917,-0.197 1.811,-0.379 2.688,-0.552l0,-4.775c-2.148,0.409 -4.376,0.888 -6.72,1.435l0,78.166c8.984,-2.096 16.331,-3.197 23.374,-3.197c7.45,0 14.601,1.271 22.948,3.854c-7.47,-1.396 -13.8,-2.032 -19.991,-2.032c-8.777,0 -17.766,1.301 -29.355,4.299l0,-65.508c0.523,-0.142 1.004,-0.258 1.512,-0.39l0,-4.774c-1.794,0.459 -3.626,0.948 -5.543,1.485l0,75.059c13.147,-3.696 23.176,-5.516 33.386,-5.516c7.92,0 15.971,1.107 25.64,3.269l5.074,0c9.67,-2.162 17.72,-3.269 25.641,-3.269c10.209,0 20.239,1.82 33.386,5.516l0,-75.059c-1.918,-0.537 -3.75,-1.026 -5.543,-1.485l0,4.774c0.508,0.132 0.988,0.248 1.512,0.39l0,65.508c-11.59,-2.998 -20.579,-4.299 -29.355,-4.299c-6.192,0 -12.521,0.636 -19.99,2.032c8.345,-2.583 15.496,-3.854 22.946,-3.854c7.043,0 14.391,1.101 23.375,3.197l0,-78.166c-2.345,-0.547 -4.573,-1.026 -6.721,-1.435l0,4.775c0.878,0.173 1.771,0.355 2.688,0.552l0,68.593c-7.46,-1.532 -13.564,-2.227 -19.342,-2.227c-6.463,0 -12.823,0.89 -20.183,2.893c7.493,-3.103 14.046,-4.499 21.503,-4.499c4.065,0 8.398,0.403 13.319,1.149l0,-76.388c-4.915,-0.745 -9.254,-1.147 -13.317,-1.15c-10.829,0 -19.754,2.917 -32.455,9.826Zm2.099,37.47l0,-18.296l0,-15.142c12.428,-6.721 20.585,-9.144 30.356,-9.144c2.821,0 5.828,0.2 9.285,0.625l0,66.914c-3.395,-0.391 -6.418,-0.578 -9.287,-0.578c-9.988,0 -18.653,2.293 -30.354,8.242l0,-32.621Zm-43.841,-41.957c3.455,-0.425 6.465,-0.625 9.285,-0.625c9.772,0 17.927,2.423 30.357,9.144l0,66.059c-11.7,-5.949 -20.366,-8.242 -30.354,-8.242c-2.873,0 -5.893,0.187 -9.288,0.578l0,-66.914Z" style="fill:#fff;fill-rule:nonzero;"/><path d="M43.483,0c-14.494,9.685 -28.989,19.369 -43.483,29.053c13.672,0 20.508,-0.001 34.181,-0.001c8.054,-9.683 16.105,-19.367 24.156,-29.052l-14.854,0Z" style="fill:#fff;fill-rule:nonzero;"/><path d="M78.144,0c0.538,9.685 1.074,19.369 1.611,29.053l34.18,0c-6.98,-9.684 -13.957,-19.368 -20.936,-29.053l-14.855,0Z" style="fill:#fff;fill-rule:nonzero;"/><path d="M75.668,0c-0.538,9.685 -1.075,19.369 -1.612,29.053l-34.179,0c6.979,-9.684 13.957,-19.368 20.935,-29.053l14.856,0Z" style="fill:#fff;fill-rule:nonzero;"/><path d="M95.475,0c8.052,9.685 16.105,19.369 24.157,29.053l34.18,0c-14.493,-9.684 -28.988,-19.368 -43.483,-29.053l-14.854,0Z" style="fill:#fff;fill-rule:nonzero;"/><path d="M0,30.105l0,2.406c0,9.251 7.642,16.751 17.068,16.751c9.426,0 17.068,-7.5 17.068,-16.751l0,-2.406l-34.136,0Z" style="fill:#fff;fill-rule:nonzero;"/><path d="M39.877,30.105l0,2.406c0,9.251 7.64,16.751 17.067,16.751c9.426,0 17.067,-7.5 17.067,-16.751l0,-2.406l-34.134,0Z" style="fill:#fff;fill-rule:nonzero;"/><path d="M79.981,30.105l0,2.406c0,9.251 7.641,16.751 17.067,16.751c9.428,0 17.069,-7.5 17.069,-16.751l0,-2.406l-34.136,0Z" style="fill:#fff;fill-rule:nonzero;"/><path d="M119.677,30.105l0,2.406c0,9.251 7.641,16.751 17.067,16.751c9.427,0 17.068,-7.5 17.068,-16.751l0,-2.406l-34.135,0Z" style="fill:#fff;fill-rule:nonzero;"/></svg>