<?xml version="1.0" encoding="utf-8"?>
<!-- Generator: Adobe Illustrator 24.0.3, SVG Export Plug-In . SVG Version: 6.00 Build 0)  -->
<svg version="1.1" id="Ebene_1" xmlns="http://www.w3.org/2000/svg" xmlns:xlink="http://www.w3.org/1999/xlink" x="0px" y="0px"
	 viewBox="0 0 566.1 504.8" style="enable-background:new 0 0 566.1 504.8;" xml:space="preserve">
<style type="text/css">
	.st0{fill:#C1002C;}
	.st1{enable-background:new    ;}
</style>
<g transform="matrix(.1 0 0 -.1 -.308484 432.832107)">
	<path d="M705,4323c-146-8-410-34-416-40c-11-12-72-370-66-386c3-9,43-17,128-25c176-17,294-33,310-43c11-6,10-24-4-101
		c-10-51-162-844-338-1761C142,1049,0,293,3,286c5-13,180-47,362-71c330-42,696-44,925-5c437,75,778,288,1035,645
		c76,105,211,371,254,500c130,391,173,875,105,1202c-48,234-164,399-336,478c-97,44-186,58-343,52c-410-16-726-211-959-592
		c-26-44-46-69-42-55c76,296,118,481,180,800c101,518,206,1068,206,1080C1390,4329,863,4332,705,4323z M1913,2526
		c39-16,94-76,114-125c25-59,42-179,43-294c1-352-108-745-277-1000c-65-98-192-228-279-287c-193-128-436-167-716-114
		c-75,14-88,19-88,36c0,34,68,329,105,457c152,521,455,1030,730,1226C1688,2527,1823,2564,1913,2526z"/>
	<g>
		<path class="st0" d="M4769,2543c-166-329-406-803-533-1053l-231-455l-7,85c-22,237-49,428-161,1135l-123,770l-327,3
			c-180,1-327-1-327-6c0-8,201-1148,384-2181c59-326,106-597,106-602s138-9,318-9h317l281,518c932,1713,1187,2185,1188,2199
			c1,18-5,20-368,134c-104,32-195,59-202,59S4936,2871,4769,2543z"/>
		<path class="st0" d="M5163,945c-137-42-242-162-273-308c-34-166,54-342,212-423c74-38,206-45,290-16c166,59,270,202,272,377
			c1,118-28,190-113,276c-84,84-145,109-264,108C5242,959,5186,953,5163,945z"/>
	</g>
</g>
<g class="st1">
	<path d="M6.3,448.1h14.4c11,0,18.6,3.6,18.6,13.4c0,7.3-4.3,10.9-10.9,12.6v0.2c7.2,0.6,12.3,5.3,12.3,12.8
		c0,11.4-9.4,14.1-20.2,14.1H6.3V448.1z M13.9,470.7h4.2c7.4,0,13.6-0.7,13.6-8.5c0-6.3-5.4-7.9-9.8-7.9h-8V470.7z M13.9,494.9h5.7
		c6.8,0,13-1.4,13-8.6c0-8.2-7.2-9.3-13.8-9.3h-4.9V494.9z"/>
</g>
<g class="st1">
	<path d="M65.6,461.4c11.8,0,19.7,8.5,19.7,20.3c0,11.1-8.1,20.3-19.7,20.3c-11.7,0-19.8-9.2-19.8-20.3
		C45.8,470,53.7,461.4,65.6,461.4z M65.6,496.3c8.4,0,12.1-7.6,12.1-14.5c0-7.4-4.5-14.5-12.1-14.5c-7.7,0-12.2,7.1-12.2,14.5
		C53.4,488.7,57.1,496.3,65.6,496.3z"/>
</g>
<g class="st1">
	<path d="M92.1,462.4h6.7v6h0.2c1.9-4,6-6.9,10.1-6.9c2.1,0,3.2,0.2,4.7,0.5v6.4c-1.3-0.5-2.7-0.7-4-0.7c-6.4,0-10.6,6.1-10.6,15.8
		v17.6h-7.1V462.4z"/>
</g>
<g class="st1">
	<path d="M122.1,462.4h6.7v6h0.2c1.9-4,6-6.9,10.1-6.9c2.1,0,3.2,0.2,4.7,0.5v6.4c-1.3-0.5-2.7-0.7-4-0.7c-6.4,0-10.6,6.1-10.6,15.8
		v17.6h-7.1V462.4z"/>
	<path d="M166.8,461.4c11.8,0,19.7,8.5,19.7,20.3c0,11.1-8.1,20.3-19.7,20.3c-11.7,0-19.8-9.2-19.8-20.3
		C147.1,470,155,461.4,166.8,461.4z M166.8,496.3c8.4,0,12.1-7.6,12.1-14.5c0-7.4-4.5-14.5-12.1-14.5c-7.7,0-12.2,7.1-12.2,14.5
		C154.7,488.7,158.4,496.3,166.8,496.3z"/>
	<path d="M194.1,462.4h6.7v5.6h0.2c2.7-4.5,6.6-6.5,12.3-6.5c4.5,0,9,2.3,11,7.5c2.7-5.5,8.5-7.5,12-7.5c9.9,0,13.5,6.4,13.5,14.8
		v24.9h-7.1V478c0-4.8-1.1-10.8-6.9-10.8c-7.3,0-10.2,7.1-10.2,14.4v19.5h-7.1V478c0-4.8-1.1-10.8-6.9-10.8
		c-7.3,0-10.2,7.1-10.2,14.4v19.5h-7.1V462.4z"/>
</g>
<g class="st1">
	<path d="M259.5,465.1c3.6-2.1,7.8-3.6,12.8-3.6c11.1,0,15.6,5.5,15.6,16v16c0,4.4,0.2,6.5,0.3,7.6h-6.7v-5h-0.2
		c-1.7,2.4-5.5,5.9-12,5.9c-8.4,0-14.2-3.6-14.2-12.1c0-9.7,10.6-12.8,18-12.8c2.8,0,4.8,0,7.6,0.2c0-6.7-2.4-10.1-9.6-10.1
		c-4,0-8.4,1.5-11.2,4L259.5,465.1z M280.7,482.6c-1.5,0-3-0.2-4.6-0.2c-3.9,0-13.5,0.6-13.5,7.4c0,4.1,4,6.3,7.2,6.3
		c7.1,0,10.8-4.4,10.8-10.2V482.6z M262.9,448.8h7.1v7.6h-7.1V448.8z M275.4,448.8h7.1v7.6h-7.1V448.8z"/>
</g>
<g class="st1">
	<path d="M330,501.1H323V495h-0.2c-2.1,4.4-7.3,7.1-12.7,7.1c-10,0-14.5-6.2-14.5-16.6v-23h7.1v20.1c0,9,2,13.5,8.2,13.8
		c8.1,0,11.8-6.5,11.8-16v-17.9h7.1V501.1z"/>
	<path d="M338.2,493.5c2.8,1.8,6.8,2.7,8.9,2.7c3.3,0,7.3-1.4,7.3-5.5c0-7.1-16.8-6.5-16.8-17.3c0-8.1,6-11.9,13.7-11.9
		c3.3,0,6.1,0.7,8.9,1.5l-0.6,6.2c-1.6-1-5.9-2-7.5-2c-3.6,0-6.8,1.5-6.8,4.7c0,7.9,16.8,5.6,16.8,18c0,8.3-6.6,12.1-13.5,12.1
		c-3.6,0-7.4-0.4-10.6-2.1L338.2,493.5z"/>
	<path d="M386.9,501.1h-8.5l-13.9-38.8h7.8l10.5,31.6h0.2l10.7-31.6h7.1L386.9,501.1z"/>
</g>
<g class="st1">
	<path d="M436,499.5c-2.7,1-5.9,2.5-12.2,2.5c-13.8,0-20.1-8.4-20.1-21c0-11.5,7.2-19.6,18.2-19.6c12.9,0,17.1,9.4,17.1,21.9h-27.7
		c0,7.7,6,12.9,12.8,12.9c4.7,0,10.2-2.4,11.9-3.9V499.5z M431.4,478c0-5.9-3.5-10.8-9.7-10.8c-7,0-9.9,5.8-10.4,10.8H431.4z"/>
	<path d="M446.6,462.4h6.7v6h0.2c1.9-4,6-6.9,10.1-6.9c2.1,0,3.2,0.2,4.7,0.5v6.4c-1.3-0.5-2.7-0.7-4-0.7c-6.4,0-10.6,6.1-10.6,15.8
		v17.6h-7.1V462.4z"/>
</g>
<g class="st1">
	<path d="M502.5,499.5c-2.7,1-5.9,2.5-12.2,2.5c-13.8,0-20.1-8.4-20.1-21c0-11.5,7.2-19.6,18.2-19.6c12.9,0,17.1,9.4,17.1,21.9
		h-27.7c0,7.7,6,12.9,12.8,12.9c4.7,0,10.2-2.4,11.9-3.9V499.5z M497.9,478c0-5.9-3.5-10.8-9.7-10.8c-7,0-9.9,5.8-10.4,10.8H497.9z"
		/>
	<path d="M519.6,453.7h-8.1v-8.1h8.1V453.7z M512,462.4h7.1v38.8H512V462.4z"/>
</g>
<g class="st1">
	<path d="M527.8,462.4h6.9v6.2h0.2c2.1-4.4,7.3-7.1,12.7-7.1c10,0,14.5,6.2,14.5,16.6v23h-7.1v-20.1c0-9-2-13.5-8.2-13.8
		c-8.1,0-11.8,6.5-11.8,16v17.9h-7.1V462.4z"/>
</g>
</svg>
