<?xml version="1.0" encoding="UTF-8"?><svg id="Ebene_1" xmlns="http://www.w3.org/2000/svg" xmlns:xlink="http://www.w3.org/1999/xlink" viewBox="0 0 437.67 181.81"><defs><clipPath id="clippath"><rect x="0" width="437.67" height="181.81" fill="none" stroke-width="0"/></clipPath></defs><g clip-path="url(#clippath)"><path d="M437.67,117.28v-20.84h-43.16v-28.75h43.16v-20.84h-43.16v-23.58h43.16V2.59h-67.77v114.69h67.77ZM279.73,117.28h8.73c12.37,0,21.76-.82,28.18-2.47,6.42-1.65,12.25-4.35,17.49-8.11,7.08-5.12,12.45-11.61,16.12-19.47,3.67-7.86,5.5-16.88,5.5-27.07s-1.8-18.97-5.39-26.83c-3.59-7.86-8.87-14.38-15.84-19.55-5.4-4.02-11.66-6.9-18.79-8.62-7.13-1.72-16.88-2.58-29.25-2.58h-31.37v114.69h24.61ZM279.73,23.43h13.68c12.89,0,22.29,2.94,28.18,8.81,5.9,5.88,8.84,15.13,8.84,27.77s-2.95,21.96-8.84,27.81c-5.9,5.85-15.29,8.77-28.18,8.77h-13.68V23.43ZM242.85,117.28v-20.84h-39.31V2.59h-24.61v114.69h63.92ZM155.9,2.59h-24.61v114.7h24.61V2.59ZM61.87,77.01h27.67v1.25c0,6.11-2.51,11.06-7.55,14.85-5.03,3.79-11.58,5.68-19.66,5.68-11.01,0-19.93-3.56-26.77-10.69-6.84-7.13-10.26-16.49-10.26-28.09s3.41-21.23,10.22-28.28c6.81-7.05,15.91-10.58,27.28-10.58,5.97,0,11.24,1.14,15.8,3.41s8.91,5.97,13.05,11.09l16.59-12.22c-6.13-7.78-13.1-13.63-20.91-17.55C79.53,1.96,70.94,0,61.56,0,43.79,0,29.09,5.67,17.45,17,5.82,28.34,0,42.67,0,60.01s5.79,31.93,17.38,43.28c11.58,11.36,26.31,17.04,44.18,17.04,15.62,0,28.35-5.33,38.21-15.98,9.85-10.65,14.78-24.57,14.78-41.76,0-1.62-.01-2.82-.04-3.6-.03-.78-.09-1.51-.2-2.19h-52.44v20.21Z" fill="#636362" stroke-width="0"/><path d="M329.58,173.87c-1.35-2.48-2.03-5.96-2.03-10.43s.67-7.89,2.03-10.35c1.35-2.46,3.23-3.69,5.65-3.69s4.42,1.2,5.72,3.6,1.95,5.91,1.95,10.53-.65,8.1-1.95,10.48c-1.3,2.39-3.21,3.58-5.72,3.58s-4.3-1.24-5.65-3.73M343.97,176.27c2.1-3.07,3.15-7.33,3.15-12.77s-1.05-9.71-3.16-12.76c-2.11-3.05-5.03-4.57-8.78-4.57s-6.56,1.54-8.67,4.63c-2.11,3.09-3.17,7.32-3.17,12.7s1.07,9.66,3.2,12.75c2.13,3.09,5.04,4.63,8.74,4.63s6.6-1.53,8.7-4.61M312.75,147.01l-3.56-1.83-7.82,10.79-.21.3c-4.29,5.94-6.44,10.49-6.44,13.65s.96,5.92,2.89,7.94c1.93,2.01,4.46,3.02,7.59,3.02,3.71,0,6.66-1,8.82-3,2.17-2,3.26-4.68,3.26-8.05,0-3.08-.96-5.58-2.87-7.49-1.91-1.91-4.4-2.87-7.48-2.87-.95,0-1.86.13-2.71.39-.86.26-1.71.66-2.55,1.21l11.07-14.06ZM300.84,164.85c1.27-1.38,2.92-2.07,4.96-2.07,2.26,0,4.04.66,5.34,1.99,1.3,1.33,1.94,3.13,1.94,5.42s-.64,3.99-1.93,5.34c-1.29,1.35-2.99,2.02-5.11,2.02s-3.89-.65-5.17-1.97c-1.28-1.31-1.92-3.1-1.92-5.35s.63-4.01,1.9-5.38M271.77,180.03l3.56,1.78,7.82-10.79.17-.23c4.29-5.95,6.44-10.5,6.44-13.65s-.96-5.93-2.89-7.95c-1.93-2.02-4.46-3.03-7.59-3.03-3.71,0-6.65.99-8.8,2.97s-3.23,4.66-3.23,8.05c0,3.06.96,5.55,2.87,7.47,1.91,1.91,4.4,2.87,7.48,2.87.95,0,1.86-.13,2.72-.39.86-.26,1.71-.66,2.55-1.19l-11.07,14.08ZM283.66,162.14c-1.28,1.37-2.94,2.06-4.98,2.06-2.25,0-4.02-.66-5.3-1.98-1.29-1.32-1.93-3.13-1.93-5.43s.64-3.99,1.93-5.33c1.29-1.34,2.99-2.01,5.12-2.01s3.89.66,5.17,1.98c1.28,1.32,1.92,3.11,1.92,5.36s-.64,3.98-1.92,5.35M257.23,179.98v-33.16h-8.68l-2.29,3.47h7v29.68h3.98ZM219.34,179.98v-3.7h-14v-12.83h14v-3.7h-14v-9.6h14v-3.63h-18.07v33.47h18.07ZM195.22,149.32c-1.81-1.24-3.64-2.15-5.5-2.73-1.86-.59-3.78-.88-5.76-.88-2.51,0-4.83.41-6.95,1.22-2.12.81-4.06,2.05-5.81,3.69-1.81,1.72-3.16,3.64-4.04,5.75-.88,2.11-1.32,4.46-1.32,7.03,0,2.96.66,5.67,1.98,8.14,1.32,2.47,3.23,4.55,5.72,6.24,1.5,1.01,3.11,1.77,4.82,2.3,1.72.53,3.48.79,5.29.79,2.09,0,4.12-.31,6.08-.93,1.96-.62,3.79-1.53,5.49-2.73v-5.28c-1.54,1.75-3.25,3.07-5.13,3.96-1.87.88-3.9,1.33-6.09,1.33-2.33,0-4.49-.51-6.49-1.54-2.01-1.03-3.69-2.5-5.07-4.4-.78-1.1-1.37-2.3-1.76-3.61-.39-1.31-.58-2.74-.58-4.3,0-1.98.33-3.79.98-5.43.65-1.64,1.64-3.12,2.95-4.45,1.27-1.28,2.76-2.28,4.48-3s3.49-1.07,5.3-1.07c2.25,0,4.3.42,6.16,1.25,1.86.83,3.6,2.12,5.24,3.85v-5.19ZM135.04,179.98v-25.15l25.07,26.46v-34.78h-3.88v25.43l-25.07-26.75v34.8h3.88ZM122.44,146.5h-4.07v33.48h4.07v-33.48ZM100.39,159.29c-1.58-.67-2.74-1.44-3.49-2.31-.75-.87-1.12-1.9-1.12-3.09,0-1.42.49-2.58,1.46-3.5.97-.91,2.23-1.37,3.76-1.37,1.2,0,2.28.32,3.23.95.95.63,1.81,1.6,2.57,2.89l3.37-2.1c-.84-1.66-2.02-2.92-3.52-3.77-1.51-.85-3.29-1.28-5.35-1.28-2.81,0-5.12.78-6.93,2.33-1.81,1.55-2.71,3.52-2.71,5.9,0,2.04.56,3.8,1.67,5.26,1.12,1.46,2.81,2.66,5.09,3.59l4.17,1.74c1.78.76,3.11,1.69,3.99,2.8.88,1.11,1.32,2.41,1.32,3.9,0,1.85-.63,3.34-1.89,4.49-1.27,1.15-2.92,1.73-4.96,1.73-1.73,0-3.17-.52-4.32-1.57-1.15-1.04-1.97-2.58-2.47-4.61l-3.7,1.78c.64,2.48,1.87,4.4,3.7,5.75,1.83,1.35,4.09,2.02,6.79,2.02,3.31,0,5.97-.94,7.97-2.82,2-1.88,3.01-4.36,3.01-7.44,0-2.1-.56-3.92-1.7-5.46-1.13-1.54-2.81-2.77-5.04-3.7l-4.89-2.1Z" fill="#636362" stroke-width="0"/></g><rect x="369.95" y="161.57" width="67.72" height="3.85" fill="#636362" stroke-width="0"/><rect x="0" y="161.57" width="67.72" height="3.85" fill="#636362" stroke-width="0"/></svg>