<svg width="100" height="22" fill="none" xmlns="http://www.w3.org/2000/svg"><g fill="#1e293b"><path d="M47.506 1.415h3.014v19.467h-3.014v-9.636H38.03v9.636h-3.014V1.415h3.014V9.24h9.476V1.415zM66.41.554c4.239 1.4 7.296 5.374 7.296 10.06 0 5.853-4.767 10.595-10.646 10.595a10.65 10.65 0 01-10.15-7.383 9.865 9.865 0 008.63 5.068c5.444 0 9.855-4.392 9.855-9.81 0-3.654-2.007-6.843-4.985-8.53zm-39.347.531c2.314 0 4.333.719 6.128 2.049L32.07 4.74c-1.315-1.07-3.539-1.649-5.201-1.649-4.691 0-7.457 3.298-7.457 7.95 0 5.014 3.312 8.166 7.457 8.166 1.8 0 3.565-.43 5.044-1.435l1.06 1.591c-1.77 1.199-4.121 1.849-6.243 1.849-6.972 0-10.524-4.756-10.524-10.117 0-4.898 3.86-10.01 10.856-10.01z"/><path d="M61.54 1.095a8.022 8.022 0 017.726 5.817 7.24 7.24 0 00-6.208-3.498c-3.997 0-7.234 3.223-7.234 7.2a7.187 7.187 0 003.438 6.131c-3.323-.976-5.748-4.037-5.748-7.66 0-4.414 3.593-7.99 8.025-7.99zm19.333 2.326v17.46h-3.018V3.421h-4.69V1.415h12.422v2.006h-4.714zm13.831 0v17.46h-3.018V3.421H87V1.415h12.422v2.006h-4.718zM8.085 1.085c2.171 0 4.45.736 6.17 2.062L13.24 4.812c-1.408-.979-3.228-1.68-4.99-1.68-3.192 0-4.578 1.262-4.578 2.863 0 1.477 1.8 2.366 5.366 3.586 3.092 1.06 6.226 2.464 5.98 6.229-.206 3.138-3.458 5.401-7.557 5.401-2.296 0-5.023-.868-6.882-2.27l1.2-1.76c1.622 1.175 3.534 1.982 5.627 1.982 2.489 0 4.597-1.235 4.597-3.41 0-2.329-4.307-3.326-5.972-3.956C2.555 10.481.605 8.962.741 6.165c.152-3.116 3.088-5.08 7.344-5.08z"/></g></svg>