<?xml version="1.0" encoding="UTF-8"?>
<svg xmlns="http://www.w3.org/2000/svg" width="151" height="39" viewBox="0 0 151 39" fill="none">
  <path d="M0 31.013L1.48708 25.4734H21.1597C22.0905 25.4734 22.9532 24.7128 23.0894 23.782C23.1576 23.3165 23.0213 22.8511 22.7262 22.5106C22.4537 22.1927 22.0791 22.0224 21.6705 22.0224H9.0814C7.1516 22.0224 5.47154 21.2846 4.35907 19.9564C3.2466 18.6283 2.80388 16.8347 3.15578 14.9276C3.93905 10.5572 7.62837 7.78735 11.5674 7.78735H32.1368L30.6497 13.327H10.7047C9.84196 13.327 9.04734 14.0195 8.78625 15.0184C8.68408 15.4157 8.76355 15.8244 9.01328 16.1536C9.28573 16.5055 9.71709 16.7212 10.1598 16.7212H22.8057C24.7468 16.7212 26.4155 17.459 27.528 18.7985C28.6405 20.1381 29.0264 21.9203 28.7086 23.8501C27.9934 28.1751 24.6333 31.013 20.2175 31.013H0Z" fill="#1e293b"></path>
  <path d="M105.684 7.78735C98.7826 7.78735 95.9106 11.3632 94.0263 18.4466L90.6548 31.013H96.6372L99.9746 18.4466C100.69 15.7903 102.381 13.327 105.684 13.327H112.723L114.176 7.78735H105.684Z" fill="#1e293b"></path>
  <path d="M131.76 7.7873H122.497L124.586 0H118.603L110.294 31.013H116.276L121.01 13.3269H130.284L131.76 7.7873Z" fill="#1e293b"></path>
  <path d="M51.094 7.78735H41.5018H35.5194L27.3235 38.369H33.3059L35.2811 31.0017H47.995C53.4552 31.0017 57.6213 27.5507 58.9495 22.6241L59.8235 19.3775C61.1517 14.4849 59.7895 7.78735 51.094 7.78735ZM54.3179 17.9585L53.4439 21.2051C52.8309 23.4868 50.8103 25.4847 47.995 25.4847H36.7681L40.0261 13.327H51.1054C55.0331 13.327 54.6017 16.9142 54.3179 17.9585Z" fill="#1e293b"></path>
  <path d="M82.4927 7.78735H73.9562C68.8366 7.78735 64.3299 11.2383 63.0018 16.1649L62.1277 19.4115C60.8109 24.3155 62.0369 31.013 70.8572 31.013H79.3937C84.8539 31.013 89.02 27.5621 90.3481 22.6354L91.2222 19.3888C92.5504 14.4849 91.1882 7.78735 82.4927 7.78735ZM85.7166 17.9585L84.8425 21.2051C84.2295 23.4868 82.2089 25.4847 79.3937 25.4847H70.8572C66.9181 25.4847 67.3495 21.8976 67.6446 20.8532L68.5187 17.6066C69.1317 15.3249 71.2431 13.327 73.9676 13.327H82.5041C86.4318 13.327 86.0004 16.9142 85.7166 17.9585Z" fill="#1e293b"></path>
  <path d="M144.882 0.0113214C143.361 4.62013 139.014 7.79862 134.098 7.79862L132.691 13.3269H139.354L134.598 31.0129H142.521L150.944 0.0113214C150.944 -3.0319e-05 144.882 -3.0319e-05 144.882 0.0113214Z" fill="#1e293b"></path>
</svg>
