<svg id="Ebene_1" data-name="Ebene 1" xmlns="http://www.w3.org/2000/svg" xmlns:xlink="http://www.w3.org/1999/xlink" viewBox="0 0 377 108"><defs><style>.cls-1{fill:none;}.cls-2{fill:#3e3e3d;}.cls-3{clip-path:url(#clip-path);}.cls-4{fill:#fff;}.cls-5{fill:#509e2f;}</style><clipPath id="clip-path"><rect class="cls-1" x="9.85" y="8.4" width="91.35" height="91.32" transform="translate(109.58 -1.47) rotate(90)"/></clipPath></defs><path class="cls-2" d="M137.73,49.76H126.87l-11-33.49h9.93L130.89,33c.54,1.79,1.14,3.67,1.63,6h.1a50.88,50.88,0,0,1,1.59-6.45l5-16.27h9.43Z"/><path class="cls-2" d="M150.58,49.76V16.27h19.6v7.84H159.81v4.71h9.82v7.54h-9.82v5.41h10.37v8Z"/><path class="cls-2" d="M190.27,49.76,184,37.56h-.34v12.2H174.4V16.27c3.12-.2,7.24-.25,11.46-.25,8.53,0,13.29,3,13.29,10.47a9.58,9.58,0,0,1-6.1,9.18c.89,1.34,1.69,2.58,2.43,3.87l6,10.22Zm-4.91-26.15a14.66,14.66,0,0,0-1.73.1v7.2a13.08,13.08,0,0,0,1.53.1c2.53,0,4.27-1.34,4.27-3.82C189.43,25.2,188.39,23.61,185.36,23.61Z"/><path class="cls-2" d="M203.47,49.76V16.27h19.6v7.84H212.7v4.71h9.82v7.54H212.7v5.41h10.37v8Z"/><path class="cls-2" d="M227.28,49.76V16.27h9.23V49.76Z"/><path class="cls-2" d="M259.73,49.76,254.12,38.3c-1.29-2.63-2.48-5.31-3.32-7.54a44.93,44.93,0,0,1,.25,5.31V49.76h-8.88V16.27H254l4.87,10c1.43,3,2.92,6,4.06,8.69-.24-2.29-.34-4.87-.34-6.95V16.27h8.88V49.76Z"/><path class="cls-2" d="M277.09,49.76V16.27h9.23V49.76Z"/><path class="cls-2" d="M318.17,25.7a24.65,24.65,0,0,0-8.88-1.64c-6.1,0-9.28,3.82-9.28,9.23,0,5.21,2.48,8.63,8.19,8.63a7,7,0,0,0,1.89-.25V31.5h9.22V48a30.29,30.29,0,0,1-12.05,2.34C296,50.36,290,44,290,33.93c0-10.86,7.54-18.2,19.75-18.2a35,35,0,0,1,9.82,1.48Z"/><path class="cls-2" d="M338.71,24.21V49.76h-9.23V24.21h-7.24V16.27H346v7.94Z"/><path class="cls-2" d="M348.44,49.76V16.27H368v7.84H357.66v4.71h9.83v7.54h-9.83v5.41H368v8Z"/><path class="cls-2" d="M137.88,91.76V78.56h-10v13.2h-9.23V58.27h9.23v12.2h10V58.27h9.23V91.76Z"/><path class="cls-2" d="M171.82,91.76l-1.74-5.46H159.76l-1.69,5.46H149l10.91-33.49h10.57l11.46,33.49Zm-5.41-16.92a42.9,42.9,0,0,1-1.54-5.8h-.1a44.48,44.48,0,0,1-1.64,6.35L162,79.06h5.76Z"/><path class="cls-2" d="M209.72,67.7a24.44,24.44,0,0,0-8.88-1.64c-6.1,0-9.28,3.82-9.28,9.23,0,5.21,2.48,8.63,8.19,8.63a6.85,6.85,0,0,0,1.88-.25V73.5h9.23V90a30.29,30.29,0,0,1-12.05,2.33c-11.27,0-17.27-6.4-17.27-16.42,0-10.86,7.54-18.21,19.75-18.21a35,35,0,0,1,9.82,1.49Z"/><path class="cls-2" d="M215.58,91.76V58.27h19.59v7.84H224.8v4.71h9.83v7.54H224.8v5.41h10.37v8Z"/><path class="cls-2" d="M239.39,91.76V58.27h9.23V83.52h9.23v8.24Z"/><g class="cls-3"><rect class="cls-4" x="9.87" y="8.38" width="91.32" height="91.35"/><path class="cls-5" d="M9.87,8.38h91.31v44l-11.6,0c0-16.3-13.8-32.14-33-32.14-22.11,0-34.7,16.46-34.7,32.15l-12-.05v-44Z"/><path class="cls-5" d="M55.57,23.37c16.5,0,30.95,13.15,30.95,29.14h-5c0-15-13-24.24-25.8-24.24C42.65,28.26,30,38.34,30,52.5H25c0-13.83,12.4-29.12,30.54-29.12Z"/><path class="cls-5" d="M35.29,44.94c-1.83,2.46-3.77,11.07.05,18.89,4.4,9,12.9,11.82,13.95,11.82V79c-2.72,0-19.5-6.56-19.5-23.41H25C25,73.38,42,84.78,54.13,84.78c0-1.07,0-10,0-17.12,0-17.14-15.1-22.72-18.85-22.72Zm14,25.59c-5.42-1.5-13-9.22-10.91-19.74C49.9,55.61,49.29,67,49.29,70.53Z"/><path class="cls-5" d="M9.87,55.61h12c0,16.49,14,32.26,33.84,32.26,16.68,0,33.9-12.21,33.9-32.27h11.6V99.73H9.87V55.61Z"/><path class="cls-5" d="M81.62,55.58C81.62,72.44,64.84,79,62.12,79V75.63c1.06,0,9.56-2.82,13.95-11.83C79.9,56,78,47.36,76.13,44.91c-3.76,0-18.85,5.58-18.85,22.73V84.76c12.1,0,29.15-11.4,29.15-29.18ZM73,50.92c2.09,10.52-5.48,18.24-10.91,19.74,0-3.51-.61-14.92,10.91-19.74Z"/></g></svg>