<svg viewBox="0 0 209 47" xmlns="http://www.w3.org/2000/svg" xmlns:xlink="http://www.w3.org/1999/xlink"><defs><path id="a" d="M128.537.51H.363v21.65h128.174V.51z"/></defs><g fill="none" fill-rule="evenodd"><path fill="#00A6EB" d="M0 37h209V27H0z"/><path fill="#A1CDF2" d="M0 47h209V37H0z"/><g transform="translate(40)"><mask id="b" fill="#fff"><use xlink:href="#a"/></mask><path id="logo-text" d="M119.552 17.426h-3.717a2.48 2.48 0 01-.478.59c-.431.38-.986.575-1.718.577-.693-.001-1.261-.164-1.733-.483l-.003-.002a2.46 2.46 0 01-.886-1.053c-.178-.385-.294-.85-.34-1.4h8.875v1.77zm-7.969-6.488a2.03 2.03 0 01.77-.53c.302-.12.657-.183 1.068-.183.751.003 1.347.229 1.842.686.242.225.43.5.569.837.106.261.182.56.225.896h-5.262c.14-.72.407-1.282.788-1.706zm-4.352 7.796l-.332.007a1.34 1.34 0 01-1.334-1.339v-6.944h1.797a7.583 7.583 0 00-.26.691c-.312.973-.465 2.084-.465 3.332 0 1.33.17 2.486.516 3.469a6.735 6.735 0 00.33.771c-.084.005-.167.01-.252.013zm21.028-12.097a9.57 9.57 0 01-.312-.02h-.002a2.53 2.53 0 00-.206-.008c-1.181 0-2.18.308-2.948.94-.328.265-.67.658-1.042 1.183V6.948h-4.197v3.569a6.892 6.892 0 00-.54-1.028c-.62-.99-1.418-1.729-2.384-2.194-.957-.461-2.03-.69-3.209-.69-1.985-.003-3.644.686-4.899 2.05-.222.241-.424.5-.607.777V7.215h-2.348v-4.49l-4.329 2.07v2.42h-1.35v-6.7h-4.369v21.2h4.37V10.458h1.35v8.507c0 .468.054.886.172 1.252.117.365.299.68.546.931.346.353.814.605 1.387.77.574.165 1.256.243 2.053.243.143 0 .292-.003.443-.008l2.075-.076v-2.636c.24.34.515.644.824.913 1.379 1.198 2.993 1.807 4.799 1.807h.008c1.088 0 2.066-.177 2.93-.537a5.872 5.872 0 002.22-1.62c.352-.405.64-.811.858-1.22v2.931h4.396v-7.071c-.002-1.113.148-1.919.404-2.392a2.196 2.196 0 011.025-.967c.459-.218 1.05-.336 1.779-.336a10.615 10.615 0 011.055.063l.326.036V6.651l-.278-.014zm-39.886 5.965c-.333 0-.495-.017-1.262.067-1.089.099-2.535.49-3.315.944a4.168 4.168 0 00-1.47 1.411v-3.333h3.87c.086-.414.229-.732.418-.967.145-.173.344-.308.616-.405.272-.095.616-.147 1.03-.147.753-.002 1.306.111 1.642.3a.783.783 0 01.336.345c.075.15.12.346.12.602.005.195.005.997.005 1.177 0 0-1.657.006-1.99.006zm1.972 3.307c-.012.592-.103 1.077-.258 1.459-.157.383-.375.663-.664.866a3.496 3.496 0 01-2.047.655c-.455-.001-.814-.124-1.114-.364a1.004 1.004 0 01-.306-.434 1.99 1.99 0 01-.112-.71c0-.315.063-.57.18-.782.116-.214.27-.368.54-.54.504-.266 1.592-.347 2.464-.344.58.002 1.317-.246 1.317-.246v.44zM60.46 17.426h-3.718a2.45 2.45 0 01-.477.59c-.432.38-.987.575-1.718.577-.693-.001-1.261-.164-1.733-.483l-.003-.002a2.47 2.47 0 01-.887-1.053c-.177-.385-.292-.85-.339-1.4h8.875v1.77zm-7.969-6.488c.214-.236.467-.41.769-.53.302-.12.657-.183 1.07-.183.751.003 1.346.229 1.841.686.242.225.43.5.568.837.108.261.184.56.226.896h-5.262c.141-.72.408-1.282.788-1.706zm-4.378 7.796l-.332.007a1.341 1.341 0 01-1.334-1.339v-6.944h1.823a7.238 7.238 0 00-.26.691c-.312.973-.465 2.084-.465 3.332 0 1.33.17 2.486.517 3.469a6.5 6.5 0 00.328.77c-.091.006-.183.01-.277.014zM92.581 7.567c-1.23-.638-2.634-.954-4.198-.954-1.199 0-2.231.16-3.1.486-.868.326-1.57.825-2.089 1.495v.001c-.453.595-.764 1.303-.937 2.115a6.09 6.09 0 00-.28-1.222c-.236-.676-.599-1.233-1.088-1.655-.95-.82-2.179-1.225-3.633-1.224-1.169 0-2.17.303-2.958.923a4.63 4.63 0 00-.717.732V.51h-4.423v6.126a8.448 8.448 0 01-.303-.019h-.002a2.523 2.523 0 00-.206-.008c-1.18 0-2.177.307-2.945.938-.328.264-.672.658-1.045 1.185V6.948H60.46v3.569a6.943 6.943 0 00-.54-1.028c-.62-.99-1.419-1.729-2.384-2.194-.957-.461-2.03-.69-3.208-.69-1.986-.003-3.645.686-4.9 2.05a6.003 6.003 0 00-.633.817V7.215h-2.348v-4.49l-4.33 2.07v2.42h-2.016V8.76a3.52 3.52 0 00-.77-.95c-.95-.822-2.18-1.228-3.634-1.226-1.17-.002-2.17.303-2.958.924-.27.215-.541.501-.816.86v-1.42h-4.036v14.767h4.149v-7.983c0-.853.114-1.54.326-2.056.205-.492.486-.839.84-1.07.357-.231.799-.353 1.355-.354.45 0 .807.085 1.083.237.276.154.483.374.635.692.162.337.258.875.257 1.6v8.934h4.236v-9.86a8.61 8.61 0 00-.105-1.397h1.455v8.507c0 .468.055.886.173 1.252.117.365.298.68.548.931.344.353.812.605 1.385.77.573.165 1.256.243 2.053.243.143 0 .292-.003.443-.008l2.075-.076v-2.674a5.1 5.1 0 00.85.95c1.378 1.199 2.994 1.808 4.798 1.808h.01c1.087 0 2.066-.177 2.928-.537a5.858 5.858 0 002.22-1.62c.353-.405.641-.811.859-1.22v2.931h4.396v-7.071c-.002-1.113.148-1.919.403-2.392a2.195 2.195 0 011.027-.967c.457-.218 1.048-.336 1.778-.336a10.674 10.674 0 011.056.063l.038.005v10.701h4.423v-.003h.013v-7.969c0-.852.114-1.537.326-2.053.207-.49.486-.837.842-1.068.355-.23.797-.352 1.354-.353.45 0 .807.084 1.083.237.275.153.482.373.634.69.162.337.259.874.258 1.596v8.92h4.236v-1.504c.185.29.41.552.67.782.878.781 1.996 1.168 3.308 1.168h.007c1.033 0 1.974-.24 2.804-.726a7.72 7.72 0 001.338-1v1.283h4.05l.013-10.403c0-.89-.155-1.658-.479-2.292a3.306 3.306 0 00-1.457-1.456zM22.461 4.51h4.422v-4H22.46v4zm-5.437 10.92l-2.266-8.481H9.316l-2.265 8.48-2.266-8.48H.363l3.945 14.767h5.486l2.243-8.397 2.243 8.397h5.486l2.699-10.1v10.1h4.422V6.948H19.29l-2.265 8.48z" fill="#000" mask="url(#b)"/></g><path id="logo-copyright" d="M174.619 3.447h.552c.372 0 .693-.05.693-.513 0-.403-.363-.47-.685-.47h-.56v.983zm-.628-1.471h1.255c.808 0 1.245.285 1.245 1.008 0 .59-.33.875-.883.926l.908 1.504h-.643l-.875-1.48h-.38v1.48h-.627V1.976zm3.399 1.732c0-1.422-1.006-2.447-2.251-2.447-1.247 0-2.253 1.025-2.253 2.447 0 1.421 1.006 2.447 2.253 2.447 1.245 0 2.251-1.026 2.251-2.447zm-5.23 0c0-1.674 1.337-3.036 2.979-3.036 1.64 0 2.977 1.362 2.977 3.036 0 1.673-1.336 3.035-2.977 3.035-1.642 0-2.979-1.362-2.979-3.035z" fill="#000"/></g></svg>