<svg id="WŸrth_Gruppe" data-name="WŸrth Gruppe" xmlns="http://www.w3.org/2000/svg" viewBox="0 0 320.32 36.45"><defs><style>.cls-1{fill:#c00;}</style></defs><title>WRT_Group_RGB</title><path id="WŸrth" d="M128.72,7.35V30.59h-5.13V20.43H113.14V30.59H108V7.35h5.13v8.81h10.45V7.35Zm-43,4.2h6.64v19h5.13v-19h6.64V7.35H85.72ZM51.78,21.32c0,4-2,5.59-5,5.59s-5-1.55-5-5.56V13.49H36.53v7.89c0,5.46,3.09,9.74,10.22,9.74S57,26.84,57,21.42V13.49h-5.2ZM36.53,11.55h5.19V7.35H36.53Zm15.25,0H57V7.35h-5.2ZM14,7.35,9.24,24.08,5,7.35H0L6.38,30.59H11.6l5-17.36,5,17.36H27L33.33,7.35h-5L24.16,24.08,19.36,7.35Zm48.52,0H73.91C80.38,7.35,83,11,83,15a7.27,7.27,0,0,1-4.53,6.58l5.22,9H77.88l-4.47-8H67.56v8h-5Zm5,4v7.2h5.82C76.63,18.56,78,17.11,78,15s-1.38-3.61-4.63-3.61Z" transform="translate(0 0)"/><path id="Group" d="M310.49,7.35H299.93V30.59h5.13V23.13h5.43c7.13,0,9.83-3.69,9.83-7.9S317.62,7.35,310.49,7.35Zm4.7,8c0,2.4-1.38,3.82-5.23,3.82h-4.9V11.49H310C313.81,11.49,315.19,12.9,315.19,15.3ZM257,6.82c-7.49,0-12,5.59-12,12.16s4.54,12.13,12,12.13S269,25.53,269,19,264.47,6.82,257,6.82ZM263.88,19c0,4.84-2.66,7.93-6.91,7.93s-6.9-3.09-6.9-7.93,2.66-8,6.9-8S263.88,14.12,263.88,19ZM289.47,7.35h5V21.42c0,5.42-3.16,9.69-10.42,9.69s-10.43-4.27-10.43-9.73v-14h5v14c0,4,2.24,5.56,5.43,5.56s5.42-1.55,5.42-5.59ZM198.28,19c0,4.9,2.66,8,7.23,8a8.82,8.82,0,0,0,5.07-1.38V21.94h-5.4v-4H215.7V27c-1.21,1.28-4.24,4.07-10.52,4.07-7.49,0-12-5.55-12-12.13s4.54-12.16,12.36-12.16c5.89,0,8.32,2.76,9.44,3.91L211.63,14a7.62,7.62,0,0,0-6.12-3C200.94,11,198.28,14.12,198.28,19Zm22.61,11.61h5v-8h5.85l4.47,8H242l-5.23-9A7.26,7.26,0,0,0,241.33,15c0-3.94-2.62-7.62-9.1-7.62H220.89ZM231.7,11.36c3.26,0,4.64,1.48,4.64,3.61s-1.38,3.59-4.64,3.59h-5.81v-7.2Z" transform="translate(0 0)"/><path class="cls-1" d="M178.76,14.27h-33.3V0h13.86V5.61h5.58V0h13.86V14.27ZM164.9,30.86v5.59a16.87,16.87,0,0,0,13.86-16.24v-.3h-33.3v.3a16.87,16.87,0,0,0,13.86,16.24V30.86Z" transform="translate(0 0)"/></svg>